# Blender v2.79 (sub 0) OBJ File: ''
# www.blender.org
mtllib t1.mtl
o Mball
v -0.807382 -0.989747 5.352559
v -0.407382 -0.989747 5.352559
v -0.407382 -0.956363 5.371321
v -0.807382 -0.956363 5.371321
v -0.807382 -0.575124 5.752559
v -0.407382 -0.575124 5.752559
v -0.407382 -0.556363 5.785943
v -0.807382 -0.556363 5.785943
v -0.807382 -0.423052 6.152559
v -0.407382 -0.423052 6.152559
v -0.807382 -0.423052 6.552559
v -0.407382 -0.423052 6.552559
v -0.407382 -0.556363 6.919175
v -0.807382 -0.556363 6.919175
v -0.807382 -0.575124 6.952559
v -0.407382 -0.575124 6.952559
v -0.407382 -0.956363 7.333797
v -0.807382 -0.956363 7.333797
v -0.807382 -0.989747 7.352559
v -0.407382 -0.989747 7.352559
v -0.407382 -1.356363 7.485870
v -0.807382 -1.356363 7.485870
v -0.807382 -1.756363 7.485870
v -0.407382 -1.756363 7.485870
v -0.807382 -2.122979 7.352559
v -0.407382 -2.122979 7.352559
v -0.407382 -2.156363 7.333798
v -0.807382 -2.156363 7.333798
v -0.807382 -2.537601 6.952559
v -0.407382 -2.537601 6.952559
v -0.007382 -2.156363 7.248276
v -0.007382 -2.452080 6.952559
v -0.007382 -2.556363 6.755164
v -0.407382 -2.556363 6.919175
v -0.407382 -2.689673 6.552559
v -0.007382 -2.616476 6.552559
v -0.007382 -2.616476 6.152559
v -0.407382 -2.689673 6.152559
v 0.122814 -2.556363 6.552559
v 0.122814 -2.556363 6.152559
v 0.392618 -2.357784 6.552559
v 0.392618 -2.357784 6.152559
v -0.007382 -2.452080 5.752559
v -0.007382 -2.556363 5.949954
v 0.392618 -2.156363 5.785943
v 0.368498 -2.156363 5.752559
v 0.392618 -2.122979 5.752559
v -0.007382 -1.958967 5.352559
v -0.007382 -2.156363 5.456842
v 0.392618 -1.756363 5.551138
v 0.122814 -1.756363 5.352559
v 0.392618 -1.356363 5.551138
v 0.122814 -1.356363 5.352559
v -0.007382 -1.153758 5.352559
v 0.392618 -0.989747 5.752559
v 0.368498 -0.956363 5.752559
v -0.007382 -0.956363 5.456842
v -0.007382 -0.660646 5.752559
v 0.392618 -0.956363 5.785944
v 0.392618 -0.754942 6.152559
v 0.122813 -0.556363 6.152559
v -0.007382 -0.556363 5.949955
v 0.392618 -0.754942 6.552559
v 0.122813 -0.556363 6.552559
v -0.007382 -0.496249 6.552559
v -0.007382 -0.496249 6.152559
v -0.007382 -0.556363 6.755164
v -0.007382 -0.660646 6.952559
v 0.392618 -0.956363 6.919175
v 0.368498 -0.956363 6.952559
v 0.392618 -0.989747 6.952559
v -0.007382 -1.153758 7.352559
v -0.007382 -0.956363 7.248276
v 0.392618 -1.356363 7.153980
v 0.122814 -1.356363 7.352559
v 0.392618 -1.756363 7.153980
v 0.122814 -1.756363 7.352559
v -0.007382 -1.958967 7.352559
v 0.392618 -2.122979 6.952559
v 0.368498 -2.156363 6.952559
v 0.392618 -2.156363 6.919175
v 0.553406 -1.756363 6.952559
v 0.707727 -1.756363 6.552559
v 0.553406 -2.156363 6.552559
v 0.553406 -1.356363 6.952559
v 0.707727 -1.356363 6.552559
v 0.707727 -1.356363 6.152559
v 0.707727 -1.756363 6.152559
v 0.553406 -0.956363 6.552559
v 0.553406 -0.956363 6.152559
v 0.553406 -1.356363 5.752559
v 0.553406 -2.156363 6.152559
v -0.007382 -1.756363 7.412673
v -0.007382 -1.356363 7.412672
v -0.007382 -1.356363 5.292446
v -0.407382 -1.356363 5.219248
v -0.007382 -1.756363 5.292446
v 0.553406 -1.756363 5.752559
v -0.407382 -2.122979 5.352559
v -0.407382 -1.756363 5.219248
v -0.807382 -2.122979 5.352559
v -0.807382 -1.756363 5.219248
v -0.807382 -1.356363 5.219248
v -0.807382 -2.156363 5.371320
v -0.407382 -2.156363 5.371320
v -1.207382 -2.122979 5.352559
v -1.207382 -2.156363 5.371320
v -1.607382 -2.122979 5.352559
v -1.607382 -2.156363 5.371320
v -1.607382 -2.537601 5.752559
v -1.207382 -2.537601 5.752559
v -1.607382 -2.556363 5.785943
v -1.207382 -2.556363 5.785943
v -1.607382 -2.689673 6.152559
v -1.207382 -2.689673 6.152559
v -1.607382 -2.689673 6.552559
v -1.207382 -2.689673 6.552559
v -1.607382 -2.556363 6.919175
v -1.207382 -2.556363 6.919175
v -1.607382 -2.537601 6.952559
v -1.207382 -2.537601 6.952559
v -1.607382 -2.156363 7.333798
v -1.207382 -2.156363 7.333798
v -1.607382 -2.122979 7.352559
v -1.207382 -2.122979 7.352559
v -1.607382 -1.756363 7.485870
v -1.207382 -1.756363 7.485870
v -1.607382 -1.356363 7.485870
v -1.207382 -1.356363 7.485870
v -1.607382 -0.989747 7.352559
v -1.207382 -0.989747 7.352559
v -1.607382 -0.956363 7.333797
v -1.207382 -0.956363 7.333797
v -1.607382 -0.575124 6.952559
v -1.207382 -0.575124 6.952559
v -1.607382 -0.556363 6.919175
v -1.207382 -0.556363 6.919175
v -1.607382 -0.423052 6.552559
v -1.207382 -0.423052 6.552559
v -1.607382 -0.423052 6.152559
v -1.207382 -0.423052 6.152559
v -1.607382 -0.556363 5.785943
v -1.207382 -0.556363 5.785943
v -1.607382 -0.575124 5.752559
v -1.207382 -0.575124 5.752559
v -1.607382 -0.956363 5.371321
v -1.207382 -0.956363 5.371321
v -1.607382 -0.989747 5.352559
v -1.207382 -0.989747 5.352559
v -1.607382 -1.356363 5.219248
v -1.207382 -1.356363 5.219248
v -1.607382 -1.756363 5.219248
v -1.207382 -1.756363 5.219248
v -2.007382 -1.756363 5.219248
v -2.007382 -1.356363 5.219248
v -2.007382 -2.122979 5.352559
v -2.407382 -2.122979 5.352559
v -2.407382 -1.756363 5.219248
v -2.407382 -2.156363 5.371320
v -2.007382 -2.156363 5.371320
v -2.407382 -2.537601 5.752559
v -2.007382 -2.537601 5.752559
v -2.407382 -2.556363 5.785943
v -2.007382 -2.556363 5.785943
v -2.807382 -2.452080 5.752559
v -2.807382 -2.556363 5.949954
v -2.807382 -2.616476 6.152559
v -2.407382 -2.689673 6.152559
v -2.807382 -2.616476 6.552559
v -2.407382 -2.689673 6.552559
v -2.807382 -2.556363 6.755164
v -2.407382 -2.556363 6.919175
v -2.807382 -2.452080 6.952559
v -2.407382 -2.537601 6.952559
v -2.807382 -2.156363 7.248276
v -2.407382 -2.156363 7.333798
v -2.807382 -1.958967 7.352559
v -2.407382 -2.122979 7.352559
v -2.807382 -1.756363 7.412673
v -2.407382 -1.756363 7.485870
v -2.007382 -1.756363 7.485870
v -2.007382 -2.122979 7.352559
v -2.407382 -1.356363 7.485870
v -2.007382 -1.356363 7.485870
v -2.407382 -0.989747 7.352559
v -2.007382 -0.989747 7.352559
v -2.407382 -0.956363 7.333797
v -2.007382 -0.956363 7.333797
v -2.807382 -1.153758 7.352559
v -2.807382 -0.956363 7.248276
v -2.807382 -0.660646 6.952559
v -2.407382 -0.575124 6.952559
v -2.807382 -0.556363 6.755164
v -2.407382 -0.556363 6.919175
v -2.807382 -0.496249 6.552559
v -2.407382 -0.423052 6.552559
v -2.807382 -0.496249 6.152559
v -2.407382 -0.423052 6.152559
v -2.007382 -0.423052 6.152559
v -2.007382 -0.423052 6.552559
v -2.407382 -0.556363 5.785943
v -2.007382 -0.556363 5.785943
v -2.407382 -0.575124 5.752559
v -2.007382 -0.575124 5.752559
v -2.407382 -0.956363 5.371321
v -2.007382 -0.956363 5.371321
v -2.407382 -0.989747 5.352559
v -2.007382 -0.989747 5.352559
v -2.407382 -1.356363 5.219248
v -2.807382 -1.153758 5.352559
v -2.807382 -1.356363 5.292446
v -2.807382 -1.756363 5.292446
v -2.937578 -1.356363 5.352559
v -2.937578 -1.756363 5.352559
v -2.807382 -1.958967 5.352559
v -3.207382 -2.122979 5.752559
v -3.183263 -2.156363 5.752559
v -2.807382 -2.156363 5.456842
v -3.207382 -1.756363 5.551138
v -3.207382 -2.156363 5.785943
v -3.368171 -1.756363 5.752559
v -3.522491 -1.756363 6.152559
v -3.368171 -2.156363 6.152559
v -3.207382 -2.357784 6.152559
v -3.207382 -2.357784 6.552559
v -3.368171 -2.156363 6.552559
v -3.207382 -2.156363 6.919175
v -3.207382 -2.122979 6.952559
v -3.522491 -1.756363 6.552559
v -3.368171 -1.756363 6.952559
v -3.522491 -1.356363 6.552559
v -3.368170 -1.356363 6.952559
v -3.207382 -0.989747 6.952559
v -3.368170 -0.956363 6.552559
v -3.207382 -0.956363 6.919175
v -3.207382 -0.754941 6.552559
v -3.368170 -0.956363 6.152559
v -3.207382 -0.754941 6.152559
v -3.207382 -0.956363 5.785943
v -3.207382 -0.989747 5.752559
v -3.522491 -1.356363 6.152559
v -3.368170 -1.356363 5.752559
v -3.207382 -1.356363 5.551138
v -2.807382 -0.956363 5.456842
v -3.183262 -0.956363 5.752559
v -2.807382 -0.660646 5.752559
v -2.807382 -0.556363 5.949955
v -2.937578 -0.556363 6.152559
v -2.937578 -0.556363 6.552559
v -3.207382 -1.356363 7.153980
v -3.183262 -0.956363 6.952559
v -3.207382 -1.756363 7.153980
v -2.937578 -1.356363 7.352559
v -2.937578 -1.756363 7.352559
v -2.807382 -1.356363 7.412673
v -3.183263 -2.156363 6.952559
v -2.937578 -2.556363 6.552559
v -2.937578 -2.556363 6.152559
v -2.007382 -0.556363 6.919175
v -2.007382 -0.575124 6.952559
v -2.007382 -2.156363 7.333798
v -2.007382 -2.537601 6.952559
v -2.007382 -2.556363 6.919175
v -2.007382 -2.689673 6.552559
v -2.007382 -2.689673 6.152559
v -0.807382 -2.556363 6.919175
v -0.807382 -2.689673 6.552559
v -0.807382 -2.689673 6.152559
v -0.807382 -2.556363 5.785943
v -0.807382 -2.537601 5.752559
v -0.407382 -2.556363 5.785943
v -0.407382 -2.537601 5.752559
vn 0.0000 0.4172 -0.9088
vn 0.0000 0.6041 -0.7969
vn 0.0855 0.5930 -0.8006
vn 0.0868 0.4140 -0.9061
vn 0.0855 0.8006 -0.5930
vn 0.0000 0.7969 -0.6041
vn 0.0000 0.9088 -0.4172
vn 0.0868 0.9061 -0.4140
vn 0.0835 0.9825 -0.1664
vn 0.0000 0.9848 -0.1735
vn 0.0835 0.9825 0.1664
vn 0.0000 0.9848 0.1735
vn 0.0000 0.9088 0.4172
vn 0.0868 0.9061 0.4140
vn 0.0855 0.8006 0.5930
vn 0.0000 0.7969 0.6041
vn 0.0000 0.6041 0.7969
vn 0.0855 0.5930 0.8006
vn 0.0868 0.4140 0.9061
vn 0.0000 0.4172 0.9088
vn 0.0000 0.1735 0.9848
vn 0.0835 0.1664 0.9825
vn 0.0835 -0.1664 0.9825
vn 0.0000 -0.1735 0.9848
vn 0.0868 -0.4140 0.9061
vn 0.0000 -0.4172 0.9088
vn 0.0000 -0.6041 0.7969
vn 0.0855 -0.5930 0.8006
vn 0.0855 -0.8006 0.5930
vn 0.0000 -0.7969 0.6041
vn 0.3544 -0.7567 0.5494
vn 0.3567 -0.5502 0.7550
vn 0.0868 -0.9061 0.4140
vn 0.3496 -0.8603 0.3710
vn 0.2910 -0.9454 0.1466
vn 0.0835 -0.9825 0.1664
vn 0.0835 -0.9825 -0.1664
vn 0.2910 -0.9454 -0.1466
vn 0.5161 -0.8396 -0.1694
vn 0.5161 -0.8396 0.1694
vn 0.6765 -0.7133 -0.1831
vn 0.6765 -0.7133 0.1831
vn 0.3496 -0.8603 -0.3710
vn 0.3544 -0.7567 -0.5494
vn 0.5944 -0.5662 -0.5710
vn 0.7306 -0.5473 -0.4082
vn 0.7294 -0.3945 -0.5589
vn 0.3567 -0.5502 -0.7550
vn 0.3523 -0.3765 -0.8568
vn 0.5174 -0.1738 -0.8379
vn 0.6757 -0.1831 -0.7140
vn 0.5174 0.1738 -0.8379
vn 0.6757 0.1831 -0.7140
vn 0.7274 0.3985 -0.5585
vn 0.3523 0.3765 -0.8568
vn 0.3567 0.5502 -0.7550
vn 0.5944 0.5662 -0.5710
vn 0.3544 0.7567 -0.5494
vn 0.6765 0.7133 -0.1831
vn 0.7230 0.5590 -0.4059
vn 0.3496 0.8603 -0.3710
vn 0.5161 0.8396 -0.1694
vn 0.5161 0.8396 0.1694
vn 0.6765 0.7133 0.1831
vn 0.2910 0.9454 -0.1466
vn 0.2910 0.9454 0.1466
vn 0.3496 0.8603 0.3710
vn 0.3544 0.7567 0.5494
vn 0.5944 0.5662 0.5710
vn 0.7306 0.5473 0.4082
vn 0.7294 0.3945 0.5589
vn 0.3567 0.5502 0.7550
vn 0.3523 0.3765 0.8568
vn 0.5174 0.1738 0.8379
vn 0.6757 0.1831 0.7140
vn 0.5174 -0.1738 0.8379
vn 0.6757 -0.1831 0.7140
vn 0.7274 -0.3985 0.5585
vn 0.3523 -0.3765 0.8568
vn 0.5944 -0.5662 0.5710
vn 0.7230 -0.5590 0.4059
vn 0.8558 -0.4876 0.1726
vn 0.9666 -0.1812 0.1812
vn 0.8560 -0.1723 0.4874
vn 0.9665 0.1815 0.1812
vn 0.8575 0.1794 0.4821
vn 0.9665 -0.1815 -0.1812
vn 0.9666 0.1812 -0.1812
vn 0.8558 0.4876 -0.1726
vn 0.8573 0.4829 0.1783
vn 0.8560 0.1723 -0.4874
vn 0.8573 -0.4829 -0.1783
vn 0.2910 -0.1466 0.9454
vn 0.2910 0.1466 0.9454
vn 0.2910 0.1466 -0.9454
vn 0.0835 0.1664 -0.9825
vn 0.2910 -0.1466 -0.9454
vn 0.8575 -0.1794 -0.4821
vn 0.0835 -0.1664 -0.9825
vn 0.0868 -0.4140 -0.9061
vn 0.0000 -0.1735 -0.9848
vn 0.0000 -0.4172 -0.9088
vn 0.0000 0.1735 -0.9848
vn 0.0855 -0.5930 -0.8006
vn 0.0000 -0.6041 -0.7969
vn 0.0000 -0.7969 -0.6041
vn 0.0000 -0.9088 -0.4172
vn 0.0000 -0.9848 -0.1735
vn 0.0000 -0.9848 0.1735
vn 0.0000 -0.9088 0.4172
vn -0.0835 -0.1664 -0.9825
vn -0.0868 -0.4140 -0.9061
vn -0.0855 -0.5930 -0.8006
vn -0.0855 -0.8006 -0.5930
vn -0.0868 -0.9061 -0.4140
vn -0.3496 -0.8603 -0.3710
vn -0.3544 -0.7567 -0.5494
vn -0.0835 -0.9825 -0.1664
vn -0.2910 -0.9454 -0.1466
vn -0.0835 -0.9825 0.1664
vn -0.2910 -0.9454 0.1466
vn -0.0868 -0.9061 0.4140
vn -0.3496 -0.8603 0.3710
vn -0.0855 -0.8006 0.5930
vn -0.3544 -0.7567 0.5494
vn -0.0855 -0.5930 0.8006
vn -0.3567 -0.5502 0.7550
vn -0.0868 -0.4140 0.9061
vn -0.3523 -0.3765 0.8568
vn -0.0835 -0.1664 0.9825
vn -0.2910 -0.1466 0.9454
vn -0.0835 0.1664 0.9825
vn -0.0868 0.4140 0.9061
vn -0.0855 0.5930 0.8006
vn -0.3567 0.5502 0.7550
vn -0.3523 0.3765 0.8568
vn -0.0855 0.8006 0.5930
vn -0.3544 0.7567 0.5494
vn -0.0868 0.9061 0.4140
vn -0.3496 0.8603 0.3710
vn -0.0835 0.9825 0.1664
vn -0.2910 0.9454 0.1466
vn -0.0835 0.9825 -0.1664
vn -0.2910 0.9454 -0.1466
vn -0.0868 0.9061 -0.4140
vn -0.0855 0.8006 -0.5930
vn -0.0855 0.5930 -0.8006
vn -0.0868 0.4140 -0.9061
vn -0.0835 0.1664 -0.9825
vn -0.2910 0.1466 -0.9454
vn -0.3523 0.3765 -0.8568
vn -0.2910 -0.1466 -0.9454
vn -0.5174 -0.1738 -0.8379
vn -0.5174 0.1738 -0.8379
vn -0.3523 -0.3765 -0.8568
vn -0.3567 -0.5502 -0.7550
vn -0.5944 -0.5662 -0.5710
vn -0.7274 -0.3985 -0.5585
vn -0.6757 -0.1831 -0.7140
vn -0.7230 -0.5590 -0.4059
vn -0.8558 -0.4876 -0.1726
vn -0.9666 -0.1812 -0.1812
vn -0.8560 -0.1723 -0.4874
vn -0.6765 -0.7133 -0.1831
vn -0.8573 -0.4829 0.1783
vn -0.6765 -0.7133 0.1831
vn -0.7306 -0.5473 0.4082
vn -0.9665 -0.1815 0.1812
vn -0.7294 -0.3945 0.5589
vn -0.8575 -0.1794 0.4821
vn -0.8560 0.1723 0.4874
vn -0.9666 0.1812 0.1812
vn -0.8558 0.4876 0.1726
vn -0.7274 0.3985 0.5585
vn -0.7230 0.5590 0.4059
vn -0.6765 0.7133 0.1831
vn -0.6765 0.7133 -0.1831
vn -0.8573 0.4829 -0.1783
vn -0.7306 0.5473 -0.4082
vn -0.9665 0.1815 -0.1812
vn -0.7294 0.3945 -0.5589
vn -0.8575 0.1794 -0.4821
vn -0.6757 0.1831 -0.7140
vn -0.5944 0.5662 -0.5710
vn -0.3567 0.5502 -0.7550
vn -0.3544 0.7567 -0.5494
vn -0.5161 0.8396 -0.1694
vn -0.3496 0.8603 -0.3710
vn -0.5161 0.8396 0.1694
vn -0.6757 0.1831 0.7140
vn -0.5944 0.5662 0.5710
vn -0.6757 -0.1831 0.7140
vn -0.5174 -0.1738 0.8379
vn -0.5174 0.1738 0.8379
vn -0.2910 0.1466 0.9454
vn -0.5944 -0.5662 0.5710
vn -0.5161 -0.8396 -0.1694
vn -0.5161 -0.8396 0.1694
vn 0.0855 -0.8006 -0.5930
vn 0.0868 -0.9061 -0.4140
usemtl None
s 1
f 1//1 4//2 3//3 2//4
f 6//5 3//3 4//2 5//6
f 8//7 7//8 6//5 5//6
f 10//9 7//8 8//7 9//10
f 12//11 10//9 9//10 11//12
f 14//13 13//14 12//11 11//12
f 16//15 13//14 14//13 15//16
f 18//17 17//18 16//15 15//16
f 20//19 17//18 18//17 19//20
f 22//21 21//22 20//19 19//20
f 24//23 21//22 22//21 23//24
f 26//25 24//23 23//24 25//26
f 28//27 27//28 26//25 25//26
f 30//29 27//28 28//27 29//30
f 32//31 31//32 27//28 30//29
f 34//33 33//34 32//31 30//29
f 36//35 33//34 34//33 35//36
f 38//37 37//38 36//35 35//36
f 37//38 40//39 39//40 36//35
f 39//40 40//39 42//41 41//42
f 42//41 40//39 44//43 43//44
f 46//45 45//46 42//41 43//44
f 45//46 46//45 47//47
f 47//47 46//45 49//48 48//49
f 51//50 50//51 47//47 48//49
f 51//50 53//52 52//53 50//51
f 55//54 52//53 53//52 54//55
f 57//56 56//57 55//54 54//55
f 56//57 57//56 58//58
f 60//59 59//60 56//57 58//58
f 62//61 61//62 60//59 58//58
f 60//59 61//62 64//63 63//64
f 64//63 61//62 66//65 65//66
f 67//67 64//63 65//66
f 63//64 64//63 67//67 68//68
f 70//69 69//70 63//64 68//68
f 69//70 70//69 71//71
f 71//71 70//69 73//72 72//73
f 75//74 74//75 71//71 72//73
f 74//75 75//74 77//76 76//77
f 79//78 76//77 77//76 78//79
f 31//32 80//80 79//78 78//79
f 80//80 81//81 79//78
f 84//82 83//83 82//84 79//78
f 81//81 84//82 79//78
f 83//83 86//85 85//86 82//84
f 88//87 87//88 86//85 83//83
f 87//88 90//89 89//90 86//85
f 90//89 87//88 91//91 55//54
f 59//60 90//89 55//54
f 84//82 81//81 41//42
f 92//92 88//87 83//83 84//82
f 77//76 93//93 78//79
f 82//84 76//77 79//78
f 82//84 85//86 74//75 76//77
f 94//94 75//74 72//73
f 74//75 85//86 71//71
f 86//85 89//90 69//70 71//71
f 85//86 86//85 71//71
f 73//72 70//69 68//68
f 69//70 89//90 63//64
f 89//90 90//89 60//59 63//64
f 90//89 59//60 60//59
f 53//52 95//95 54//55
f 54//55 95//95 96//96 2//4
f 56//57 59//60 55//54
f 91//91 52//53 55//54
f 95//95 53//52 51//50 97//97
f 52//53 91//91 98//98 50//51
f 97//97 51//50 48//49
f 100//99 97//97 48//49 99//100
f 102//101 100//99 99//100 101//102
f 103//103 96//96 100//99 102//101
f 99//100 105//104 104//105 101//102
f 101//102 104//105 107//105 106//102
f 106//102 107//105 109//105 108//102
f 109//105 107//105 111//106 110//106
f 111//106 113//107 112//107 110//106
f 112//107 113//107 115//108 114//108
f 114//108 115//108 117//109 116//109
f 117//109 119//110 118//110 116//109
f 118//110 119//110 121//30 120//30
f 121//30 123//27 122//27 120//30
f 122//27 123//27 125//26 124//26
f 125//26 127//24 126//24 124//26
f 127//24 129//21 128//21 126//24
f 128//21 129//21 131//20 130//20
f 131//20 133//17 132//17 130//20
f 132//17 133//17 135//16 134//16
f 135//16 137//13 136//13 134//16
f 136//13 137//13 139//12 138//12
f 139//12 141//10 140//10 138//12
f 141//10 143//7 142//7 140//10
f 142//7 143//7 145//6 144//6
f 145//6 147//2 146//2 144//6
f 146//2 147//2 149//1 148//1
f 149//1 151//103 150//103 148//1
f 150//103 151//103 153//101 152//101
f 155//103 150//103 152//101 154//101
f 154//101 152//101 108//102 156//102
f 158//111 154//101 156//102 157//112
f 156//102 160//105 159//113 157//112
f 159//113 160//105 162//106 161//114
f 162//106 164//107 163//115 161//114
f 161//114 163//115 166//116 165//117
f 166//116 163//115 168//118 167//119
f 167//119 168//118 170//120 169//121
f 170//120 172//122 171//123 169//121
f 171//123 172//122 174//124 173//125
f 174//124 176//126 175//127 173//125
f 175//127 176//126 178//128 177//129
f 178//128 180//130 179//131 177//129
f 182//26 181//24 180//130 178//128
f 181//24 184//21 183//132 180//130
f 183//132 184//21 186//20 185//133
f 186//20 188//17 187//134 185//133
f 185//133 187//134 190//135 189//136
f 190//135 187//134 192//137 191//138
f 192//137 194//139 193//140 191//138
f 193//140 194//139 196//141 195//142
f 196//141 198//143 197//144 195//142
f 200//12 199//10 198//143 196//141
f 199//10 202//7 201//145 198//143
f 201//145 202//7 204//6 203//146
f 204//6 206//2 205//147 203//146
f 205//147 206//2 208//1 207//148
f 208//1 155//103 209//149 207//148
f 207//148 209//149 211//150 210//151
f 211//150 209//149 158//111 212//152
f 214//153 213//154 211//150 212//152
f 214//153 212//152 215//155
f 215//155 218//156 217//157 216//158
f 219//159 214//153 215//155 216//158
f 217//157 218//156 165//117
f 217//157 220//160 216//158
f 223//161 222//162 221//163 216//158
f 220//160 223//161 216//158
f 223//161 220//160 224//164
f 226//165 223//161 224//164 225//166
f 227//167 226//165 225//166
f 229//168 226//165 227//167 228//169
f 230//170 229//168 228//169
f 232//171 231//172 229//168 230//170
f 234//173 231//172 232//171 233//174
f 235//175 234//173 233//174
f 234//173 235//175 236//176
f 238//177 237//178 234//173 236//176
f 239//179 237//178 238//177
f 241//180 237//178 239//179 240//181
f 242//182 241//180 240//181
f 243//183 242//182 240//181
f 221//163 242//182 243//183 219//159
f 210//151 213//154 243//183 240//181
f 245//184 244//185 210//151 240//181
f 244//185 245//184 246//186
f 239//179 245//184 240//181
f 246//186 245//184 239//179 238//177
f 248//187 247//188 246//186 238//177
f 247//188 248//187 197//144
f 249//189 248//187 238//177 236//176
f 234//173 237//178 241//180 231//172
f 232//171 250//190 233//174
f 251//191 235//175 233//174
f 231//172 241//180 222//162 229//168
f 250//190 232//171 230//170 252//192
f 254//193 253//194 250//190 252//192
f 255//195 253//194 254//193 179//131
f 253//194 255//195 189//136
f 252//192 230//170 228//169
f 227//167 256//196 228//169
f 224//164 258//197 257//198 225//166
f 229//168 222//162 223//161 226//165
f 221//163 219//159 216//158
f 243//183 213//154 214//153 219//159
f 211//150 213//154 210//151
f 244//185 205//147 207//148 210//151
f 203//146 205//147 244//185 246//186
f 247//188 201//145 203//146 246//186
f 197//144 248//187 249//189 195//142
f 194//139 259//13 200//12 196//141
f 249//189 193//140 195//142
f 260//16 259//13 194//139 192//137
f 191//138 193//140 249//189 236//176
f 235//175 251//191 191//138 236//176
f 251//191 190//135 191//138
f 189//136 190//135 251//191 233//174
f 250//190 253//194 189//136 233//174
f 255//195 183//132 185//133 189//136
f 179//131 254//193 177//129
f 176//126 261//27 182//26 178//128
f 177//129 254//193 252//192 228//169
f 256//196 175//127 177//129 228//169
f 262//30 261//27 176//126 174//124
f 175//127 256//196 173//125
f 172//122 263//110 262//30 174//124
f 173//125 256//196 227//167 225//166
f 257//198 171//123 173//125 225//166
f 264//109 263//110 172//122 170//120
f 171//123 257//198 169//121
f 168//118 265//108 264//109 170//120
f 257//198 258//197 167//119 169//121
f 258//197 166//116 167//119
f 165//117 166//116 258//197 224//164
f 220//160 217//157 165//117 224//164
f 218//156 159//113 161//114 165//117
f 157//112 159//113 218//156 215//155
f 212//152 158//111 157//112 215//155
f 1//1 103//103 151//103 149//1
f 148//1 150//103 155//103 208//1
f 144//6 146//2 206//2 204//6
f 202//7 142//7 144//6 204//6
f 140//10 142//7 202//7 199//10
f 138//12 140//10 199//10 200//12
f 259//13 136//13 138//12 200//12
f 134//16 136//13 259//13 260//16
f 188//17 132//17 134//16 260//16
f 130//20 132//17 188//17 186//20
f 184//21 128//21 130//20 186//20
f 126//24 128//21 184//21 181//24
f 124//26 126//24 181//24 182//26
f 261//27 122//27 124//26 182//26
f 120//30 122//27 261//27 262//30
f 267//109 266//110 119//110 117//109
f 116//109 118//110 263//110 264//109
f 115//108 268//108 267//109 117//109
f 265//108 114//108 116//109 264//109
f 164//107 112//107 114//108 265//108
f 270//106 269//107 113//107 111//106
f 272//199 271//200 269//107 270//106
f 269//107 271//200 38//37 268//108
f 110//106 112//107 164//107 162//106
f 152//101 153//101 106//102 108//102
f 108//102 109//105 160//105 156//102
f 153//101 102//101 101//102 106//102
f 50//51 98//98 47//47
f 48//49 49//48 105//104 99//100
f 105//104 49//48 43//44 272//199
f 88//87 92//92 45//46 47//47
f 98//98 88//87 47//47
f 49//48 46//45 43//44
f 45//46 92//92 42//41
f 43//44 44//43 271//200 272//199
f 42//41 92//92 84//82 41//42
f 44//43 40//39 37//38
f 268//108 38//37 35//36 267//109
f 39//40 33//34 36//35
f 35//36 34//33 266//110 267//109
f 41//42 81//81 80//80 32//31
f 33//34 39//40 41//42 32//31
f 80//80 31//32 32//31
f 29//30 28//27 123//27 121//30
f 27//28 31//32 78//79 26//25
f 123//27 28//27 25//26 125//26
f 78//79 93//93 24//23 26//25
f 25//26 23//24 127//24 125//26
f 93//93 94//94 21//22 24//23
f 21//22 94//94 72//73 20//19
f 129//21 22//21 19//20 131//20
f 72//73 73//72 17//18 20//19
f 19//20 18//17 133//17 131//20
f 68//68 67//67 13//14 16//15
f 15//16 14//13 137//13 135//16
f 13//14 67//67 65//66 12//11
f 137//13 14//13 11//12 139//12
f 65//66 66//65 10//9 12//11
f 11//12 9//10 141//10 139//12
f 66//65 62//61 7//8 10//9
f 7//8 62//61 58//58 6//5
f 143//7 8//7 5//6 145//6
f 58//58 57//56 3//3 6//5
f 5//6 4//2 147//2 145//6
f 1//1 2//4 96//96 103//103
f 3//3 57//56 54//55 2//4
f 96//96 95//95 97//97 100//99
f 104//105 105//104 272//199 270//106
f 61//62 62//61 66//65
f 98//98 91//91 87//88 88//87
f 271//200 44//43 37//38 38//37
f 17//18 73//72 68//68 16//15
f 77//76 75//74 94//94 93//93
f 266//110 34//33 30//29 29//30
f 147//2 4//2 1//1 149//1
f 151//103 103//103 102//101 153//101
f 107//105 104//105 270//106 111//106
f 9//10 8//7 143//7 141//10
f 113//107 269//107 268//108 115//108
f 133//17 18//17 15//16 135//16
f 23//24 22//21 129//21 127//24
f 119//110 266//110 29//30 121//30
f 206//2 146//2 148//1 208//1
f 209//149 155//103 154//101 158//111
f 160//105 109//105 110//106 162//106
f 198//143 201//145 247//188 197//144
f 241//180 242//182 221//163 222//162
f 163//115 164//107 265//108 168//118
f 187//134 188//17 260//16 192//137
f 180//130 183//132 255//195 179//131
f 263//110 118//110 120//30 262//30
o Cube
v 1.000000 -1.000000 -0.601563
v 1.000000 -1.000000 1.398437
v -1.000000 -1.000000 1.398437
v -1.000000 -1.000000 -0.601564
v 1.000000 1.000000 -0.601563
v 0.999999 1.000000 1.398437
v -1.000000 1.000000 1.398436
v -1.000000 1.000000 -0.601563
vn 0.0000 -1.0000 0.0000
vn 0.0000 1.0000 0.0000
vn 1.0000 0.0000 0.0000
vn -0.0000 -0.0000 1.0000
vn -1.0000 -0.0000 -0.0000
vn 0.0000 0.0000 -1.0000
usemtl Material
s off
f 273//201 274//201 275//201 276//201
f 277//202 280//202 279//202 278//202
f 273//203 277//203 278//203 274//203
f 274//204 278//204 279//204 275//204
f 275//205 279//205 280//205 276//205
f 277//206 273//206 276//206 280//206
